<svg xmlns="http://www.w3.org/2000/svg" version="1.1" xmlns:xlink="http://www.w3.org/1999/xlink" width="512" height="512" x="0" y="0" viewBox="0 0 512.002 512.002" style="enable-background:new 0 0 512 512" xml:space="preserve" class=""><g><path d="m267.151 476.001-75.687-128.789-86.61-32.614L10 476.001zM441.922 472.58l2.011 3.421h58.069l-98.016-166.783-29.035 49.405z" style="fill-rule:evenodd;clip-rule:evenodd;" fill="#036d7a" data-original="#a4fbc4" class="" opacity="1"></path><path d="M256.001 156.218V36.001h90l-25.252 30 25.252 30h-85" style="fill-rule:evenodd;clip-rule:evenodd;stroke-width:20;stroke-linecap:round;stroke-linejoin:round;stroke-miterlimit:22.9256;" fill-rule="evenodd" clip-rule="evenodd" fill="none" stroke="#54a36a" stroke-width="20" stroke-linecap="round" stroke-linejoin="round" stroke-miterlimit="22.9256" data-original="#020288" opacity="1"></path><path d="m157.447 324.405 98.554-168.187L441.922 472.58M502.002 476.001H10" style="fill-rule:evenodd;clip-rule:evenodd;stroke-width:20;stroke-linecap:round;stroke-linejoin:round;stroke-miterlimit:22.9256;" fill-rule="evenodd" clip-rule="evenodd" fill="none" stroke="#54a36a" stroke-width="20" stroke-linecap="round" stroke-linejoin="round" stroke-miterlimit="22.9256" data-original="#020288" opacity="1"></path><path d="m196.886 263.024 29.558 19.296 29.557-19.296 29.557 19.296 29.557-19.296" style="fill-rule:evenodd;clip-rule:evenodd;stroke-width:20;stroke-linecap:round;stroke-linejoin:round;stroke-miterlimit:22.9256;" fill-rule="evenodd" clip-rule="evenodd" fill="none" stroke="#54a36a" stroke-width="20" stroke-linecap="round" stroke-linejoin="round" stroke-miterlimit="22.9256" data-original="#020288" opacity="1"></path><path d="m191.464 347.212-52.889-89.995-33.721 57.38c13.767 34.277 54.037 49.149 86.61 32.615z" style="fill-rule:evenodd;clip-rule:evenodd;" fill="#036d7a" data-original="#a4fbc4" class="" opacity="1"></path></g></svg>