<svg width="630" height="86" xmlns="http://www.w3.org/2000/svg"><defs><radialGradient cx="50.001%" cy="50%" fx="50.001%" fy="50%" r="50.582%" gradientTransform="matrix(.9885 0 0 1 .006 0)" id="a"><stop stop-color="#FFF" offset="22.8%"/><stop stop-color="#F1FEFD" offset="38.2%"/><stop stop-color="#CCFAF9" offset="67.4%"/><stop stop-color="#9BF5F4" offset="100%"/></radialGradient></defs><g fill="none" fill-rule="evenodd"><path d="M122.089 59c2.847 0 5.247-.6 7.198-1.8 1.136-.688 2.416-1.871 3.84-3.551l.743 4.415h4.895v-18.98h-14.733v5.903h8.183c-.368 2.32-1.344 4.195-2.928 5.627-1.584 1.431-3.615 2.147-6.095 2.147-2.527 0-4.783-.904-6.766-2.711s-2.976-4.887-2.976-9.239c0-4.319.916-7.554 2.748-9.706 1.831-2.151 4.17-3.227 7.018-3.227 1.488 0 2.84.264 4.056.792 2.175.96 3.543 2.647 4.103 5.063h7.27c-.4-3.408-1.963-6.251-4.69-8.53-2.728-2.28-6.34-3.42-10.835-3.42-5.183 0-9.35 1.728-12.501 5.183-3.152 3.455-4.727 8.046-4.727 13.773 0 5.663 1.56 10.126 4.679 13.39C113.562 57.376 117.4 59 122.089 59zm30.162-.936v-35.37h-6.839v35.37h6.839zm18.428.912c4.496 0 7.847-1.364 10.055-4.091 2.207-2.728 3.311-6.011 3.311-9.85 0-3.776-1.104-7.047-3.311-9.815-2.208-2.767-5.56-4.15-10.055-4.15s-7.846 1.383-10.054 4.15c-2.207 2.768-3.311 6.04-3.311 9.815 0 3.839 1.104 7.122 3.311 9.85 2.208 2.727 5.56 4.091 10.054 4.091zm-.024-5.735c-2 0-3.539-.712-4.619-2.136s-1.62-3.447-1.62-6.07c0-2.624.54-4.644 1.62-6.06 1.08-1.415 2.62-2.123 4.62-2.123s3.535.708 4.607 2.124c1.071 1.415 1.607 3.435 1.607 6.059 0 2.623-.536 4.647-1.607 6.07-1.072 1.424-2.608 2.136-4.608 2.136zm32.49 5.519c3.44 0 6.12-1.336 8.039-4.007 1.92-2.672 2.88-6.04 2.88-10.102 0-3.92-.972-7.119-2.916-9.599s-4.635-3.719-8.075-3.719c-1.903 0-3.47.4-4.703 1.2-1.04.64-1.991 1.568-2.855 2.783V22.743H188.7v35.321h6.695v-3.287c.912 1.28 1.76 2.175 2.543 2.687 1.312.864 3.048 1.296 5.207 1.296zm-1.823-5.639c-2.032 0-3.544-.736-4.535-2.208-.992-1.471-1.488-3.327-1.488-5.566 0-1.904.24-3.456.72-4.656.928-2.255 2.631-3.383 5.11-3.383 2.448 0 4.128 1.152 5.04 3.455.48 1.216.72 2.752.72 4.608 0 2.32-.488 4.19-1.464 5.614-.976 1.424-2.344 2.136-4.103 2.136zm24.043 5.759c1.856 0 3.52-.424 4.991-1.272a14.05 14.05 0 003.264-2.615c.048.592.112 1.12.192 1.583.08.464.224.96.432 1.488h7.438v-1.008c-.448-.208-.784-.472-1.008-.792-.224-.32-.36-.927-.407-1.823a114.552 114.552 0 01-.048-3.024V39.42c0-3.152-1.112-5.295-3.336-6.431s-4.767-1.704-7.63-1.704c-4.4 0-7.503 1.152-9.31 3.455-1.136 1.472-1.776 3.352-1.92 5.64h6.598c.16-1.008.48-1.808.96-2.4.672-.8 1.816-1.2 3.432-1.2 1.44 0 2.531.204 3.275.612s1.116 1.148 1.116 2.22c0 .88-.488 1.527-1.464 1.943-.544.24-1.448.44-2.711.6l-2.328.288c-2.64.336-4.64.896-5.999 1.68-2.48 1.44-3.72 3.767-3.72 6.982 0 2.48.773 4.396 2.316 5.747 1.544 1.352 3.5 2.028 5.867 2.028zm2.016-4.967c-.928 0-1.716-.26-2.364-.78-.648-.52-.971-1.364-.971-2.531 0-1.312.527-2.28 1.583-2.904.624-.368 1.656-.68 3.096-.936l1.535-.288c.768-.144 1.372-.3 1.812-.468.44-.168.876-.388 1.308-.66v2.544c-.048 2.288-.692 3.863-1.932 4.727-1.24.864-2.595 1.296-4.067 1.296zm25.891 4.151v-35.37h-6.839v35.37h6.84zm47.895 0v-6.359h-19.58v-9.094h17.18v-6.143h-17.18v-7.51h18.716v-6.263h-25.939v35.37h26.803zm12.07 0V43.907c0-1.616.224-2.944.672-3.983.864-1.968 2.455-2.952 4.775-2.952 1.888 0 3.167.672 3.84 2.016.367.736.551 1.791.551 3.167v15.91h7.007V40.45c0-3.279-.86-5.627-2.58-7.042-1.72-1.416-3.931-2.124-6.634-2.124-2.16 0-3.944.528-5.351 1.584-.784.592-1.616 1.56-2.496 2.903v-3.815h-6.599v26.107h6.815zm33.714.864c4.03 0 7.166-1.272 9.406-3.815 1.44-1.6 2.247-3.176 2.423-4.727h-6.982c-.368.767-.792 1.367-1.272 1.8-.88.8-2.024 1.199-3.431 1.199-1.328 0-2.464-.328-3.408-.984-1.551-1.056-2.375-2.895-2.471-5.519h17.9c.032-2.255-.04-3.983-.216-5.183-.303-2.047-.967-3.847-1.991-5.399-1.136-1.76-2.576-3.047-4.32-3.863-1.743-.816-3.703-1.224-5.878-1.224-3.664 0-6.643 1.208-8.939 3.623-2.295 2.416-3.443 5.887-3.443 10.415 0 4.83 1.272 8.318 3.815 10.462 2.544 2.143 5.48 3.215 8.807 3.215zm5.063-16.557h-10.63c.224-1.696.772-3.04 1.643-4.031s2.1-1.488 3.684-1.488c1.455 0 2.675.468 3.659 1.404.984.936 1.532 2.307 1.644 4.115zm18.524 15.693V45.562c0-2.095.264-3.647.792-4.655.944-1.791 2.792-2.687 5.543-2.687a17.91 17.91 0 011.968.12v-7.007c-.304-.016-.5-.028-.588-.036a3.668 3.668 0 00-.324-.012c-2.048 0-3.711.536-4.991 1.608-.784.64-1.704 1.831-2.76 3.575V31.91h-6.526v26.155h6.886zm23.012 10.702c5.535 0 9.278-1.472 11.23-4.415 1.136-1.712 1.704-4.255 1.704-7.63V31.908h-6.647v3.767c-1.024-1.84-2.368-3.103-4.031-3.791-.976-.4-2.12-.6-3.432-.6-3.551 0-6.295 1.324-8.23 3.971-1.936 2.648-2.904 5.915-2.904 9.803 0 4.03 1.004 7.226 3.012 9.586 2.007 2.36 4.69 3.54 8.05 3.54 2.176 0 3.943-.52 5.303-1.56.752-.56 1.456-1.4 2.112-2.52v1.68c0 2.495-.272 4.27-.816 5.327-.832 1.647-2.48 2.471-4.943 2.471-1.744 0-2.984-.312-3.72-.936-.431-.352-.743-.928-.935-1.727h-7.439c.224 2.607 1.392 4.567 3.504 5.879 2.111 1.311 4.839 1.967 8.182 1.967zm.528-16.317c-2.4 0-4.063-1.104-4.991-3.311-.512-1.184-.768-2.536-.768-4.055 0-1.76.24-3.24.72-4.44.912-2.255 2.567-3.383 4.967-3.383 1.76 0 3.163.648 4.211 1.944 1.048 1.295 1.572 3.183 1.572 5.663 0 2.64-.552 4.563-1.656 5.77-1.104 1.208-2.455 1.812-4.055 1.812zm22.964 16.197c3.023 0 5.039-.596 6.047-1.787 1.007-1.192 2.375-4.268 4.103-9.227l8.974-25.723h-7.27l-5.4 19.292-5.71-19.292h-7.607l9.598 27.307c.064.192-.076.72-.42 1.584-.344.863-.716 1.431-1.116 1.703-.416.288-.927.472-1.535.552a10.78 10.78 0 01-1.92.072l-.864-.048v5.471c.736.048 1.288.076 1.656.084.368.008.856.012 1.464.012zm44.127-10.582V33.926c-.001-.669-.01-1.561-.024-2.677a238.39 238.39 0 01-.024-2.867l6.647 29.682h7.175l6.695-29.682c0 .672-.008 1.627-.024 2.867s-.024 2.204-.024 2.892v23.923h6.886v-35.37h-10.63l-6.382 27.812-6.431-27.811h-10.75v35.37h6.886zm45.376.912c4.495 0 7.847-1.364 10.054-4.091 2.208-2.728 3.311-6.011 3.311-9.85 0-3.776-1.103-7.047-3.31-9.815-2.208-2.767-5.56-4.15-10.055-4.15s-7.847 1.383-10.054 4.15c-2.208 2.768-3.312 6.04-3.312 9.815 0 3.839 1.104 7.122 3.312 9.85 2.207 2.727 5.559 4.091 10.054 4.091zm-.024-5.735c-2 0-3.54-.712-4.62-2.136s-1.619-3.447-1.619-6.07c0-2.624.54-4.644 1.62-6.06 1.08-1.415 2.62-2.123 4.619-2.123s3.535.708 4.607 2.124c1.072 1.415 1.608 3.435 1.608 6.059 0 2.623-.536 4.647-1.608 6.07-1.072 1.424-2.607 2.136-4.607 2.136zm25.147 4.823V43.907c0-1.616.224-2.944.672-3.983.864-1.968 2.456-2.952 4.775-2.952 1.888 0 3.168.672 3.84 2.016.368.736.551 1.791.551 3.167v15.91h7.007V40.45c0-3.279-.86-5.627-2.58-7.042-1.719-1.416-3.93-2.124-6.634-2.124-2.16 0-3.943.528-5.351 1.584-.784.592-1.616 1.56-2.496 2.903v-3.815h-6.598v26.107h6.814zm30.187-29.274v-6.311h-6.935v6.31h6.935zm0 29.274V31.91h-6.935v26.155h6.935zm8.734-1.32c1.184 1.232 3.391 1.792 6.623 1.68l3.24-.12v-5.111a18.593 18.593 0 01-1.345.048c-1.391 0-2.223-.132-2.495-.396-.272-.264-.408-.932-.408-2.004v-13.82h4.247v-4.872h-4.247v-7.295h-6.767v7.295h-3.647v4.871h3.647v16.101c0 1.632.384 2.84 1.152 3.623zm26.011 2.232c4.495 0 7.847-1.364 10.054-4.091 2.208-2.728 3.312-6.011 3.312-9.85 0-3.776-1.104-7.047-3.312-9.815-2.207-2.767-5.559-4.15-10.054-4.15s-7.846 1.383-10.054 4.15c-2.207 2.768-3.311 6.04-3.311 9.815 0 3.839 1.104 7.122 3.311 9.85 2.208 2.727 5.56 4.091 10.054 4.091zm-.024-5.735c-2 0-3.54-.712-4.619-2.136s-1.62-3.447-1.62-6.07c0-2.624.54-4.644 1.62-6.06 1.08-1.415 2.62-2.123 4.62-2.123s3.535.708 4.606 2.124c1.072 1.415 1.608 3.435 1.608 6.059 0 2.623-.536 4.647-1.608 6.07-1.071 1.424-2.607 2.136-4.607 2.136zm25.1 4.823V45.562c0-2.095.264-3.647.791-4.655.944-1.791 2.792-2.687 5.543-2.687a17.91 17.91 0 011.968.12v-7.007c-.304-.016-.5-.028-.588-.036a3.668 3.668 0 00-.324-.012c-2.047 0-3.711.536-4.99 1.608-.785.64-1.705 1.831-2.76 3.575V31.91h-6.527v26.155h6.887z" fill="#1A2A2A" fill-rule="nonzero"/><ellipse fill="url(#a)" cx="43.5" cy="43" rx="43.5" ry="43"/><path d="M37.74 51.004c-1.371.038-2.704.342-3.98 1.024-2.033 1.09-3.18 2.936-4.145 4.847-1.063 2.11-.663 4.204.553 6.109l.027.04.018.014c.456.759 1.052 1.305 1.76 1.578.732.28 1.57.27 2.457-.044.95-.336 1.893-.269 2.869-.12.795.123 1.426.612 1.985 1.288 1.26 1.527 1.267 3.488 1.509 5.389.148 1.177-.005 2.482.143 3.787.173 1.527.311 3.088.894 4.587.545 1.402 1.3 2.237 2.232 2.446.93.208 1.947-.225 2.979-1.15.87-.776 1.136-1.831 1.45-2.795.24-.732.471-1.444.834-2.021.362-.577.841-1.022 1.628-1.266l.001-.001a.642.642 0 00.438-.554l.006-.062c.242-1.098-.08-2.118-.16-3.084-.095-1.199-.276-2.261.538-3.242h.001c1.09-1.322 2.27-2.556 3.479-3.774.035-.036.144-.1.259-.204a.594.594 0 00.158-.219.529.529 0 00.013-.332c-.063-.22-.272-.338-.418-.375-.145-.036-.267-.043-.316-.059h-.003a3.29 3.29 0 00-.942-.174h-.002c-.807-.023-1.385-.457-1.909-1.064-1.132-1.317-1.886-2.899-2.707-4.475-.487-.932-.797-2.028-1.488-2.95l.13.022-.604-.568-.001-.001-.034-.034-.049-.017c-.038-.014-.076-.024-.113-.037-.295-.209-.617-.347-.955-.374-1.247-.11-2.418.213-3.55.457-.236.05-.418.071-.56.05-.143-.02-.258-.072-.401-.215l-.193-.192c-.609-.63-1.215-1.262-1.836-1.886l-.002-.002h-.002a1.015 1.015 0 00-.605-.3 11.722 11.722 0 00-1.385-.047zm19.604 27.834c-.8.017-1.53.31-2.239.689-.139.075-.278.245-.208.44.074.207.268.187.442.177.893-.105 1.648-.647 2.526-.793.06-.01.144-.156.134-.222a.333.333 0 00-.307-.28 3.446 3.446 0 00-.348-.01z" fill="#D49E13"/><path d="M65.652 12.006a3.083 3.083 0 00-.95.09c-.875.222-1.779.374-2.686.541-.824.154-1.39.35-1.756.758-.365.409-.473.974-.484 1.764-.005.4-.06.834.007 1.285.14.991-.505 1.756-1.429 2.048l-.03-.033-.167.093-.005.001-.024-.003-.002.01-.234.06.053.088h-.001a.642.642 0 00-.134.188.642.642 0 00-.04.396c.047.233.16.412.185.503v.002c.316 1.13.593 2.229.54 3.372-.013.31-.117.48-.236.556-.118.075-.296.091-.572-.04-.171-.084-.289-.26-.44-.497l-.002-.001c-.591-.94-1.345-1.79-2.616-2.007h-.001c-.39-.065-.815-.198-1.053-.4h-.001c-.832-.712-1.784-.878-2.802-.549-.036.012-.136.015-.271.05a.565.565 0 00-.382.352l-.119.018.105.081a.553.553 0 00.14.414c.104.107.21.158.27.202.568.425 1.135.783 1.532 1.297.2.262.342.497.382.71.04.214.005.42-.216.708-.537.697-.518 1.554-.184 2.28.796 1.739 1.632 3.427 1.946 5.282.054.31.202.557.432.688.23.131.497.142.776.11 1.117-.13 2.171-.438 3.193-.856.121-.008.28.006.47-.016a.86.86 0 00.545-.287l.08-.042.029-.098v-.004l.164-.253-.103-.016c.064-.35.042-.673-.094-.948-.17-.344-.508-.585-.942-.71h-.003l-.004-.001a1.268 1.268 0 01-.12-.035c-.436-.79-1.186-1.2-1.642-1.761-.014-.17-.004-.308.022-.353.015-.026.023-.036.064-.051a.586.586 0 01.205-.018c.21.1.42.2.634.3l.01.01.035.02c1.656.88 3.268 1.845 4.762 2.954.624.463 1.222.923 1.664 1.472.442.55.735 1.18.765 2.03.026.753.137 1.612.564 2.372.04.072.084.177.163.284a.62.62 0 00.403.253.587.587 0 00.496-.183c.101-.112.15-.23.19-.315v-.001c.482-1.009 1.437-1.638 2.307-2.442.251-.233.461-.314.67-.317.209-.003.439.081.7.253.608.4 1.142.875 1.558 1.45.865 1.193 1.71 2.4 2.562 3.606l-.185-.01.483.43.03.042.05.023c.132.111.255.19.394.22a.518.518 0 00.431-.108c.207-.183.236-.42.271-.62v-.001c.112-.648.058-1.3-.218-1.934v-.001c-.116-.264-.13-.446-.075-.595.055-.149.196-.302.497-.462l.001-.001c.269-.144.55-.167.875-.176.324-.01.688 0 1.063-.138.22-.082.418-.158.53-.366a.516.516 0 00.043-.342 1.023 1.023 0 00-.14-.324v-.001c-.428-.696-.841-1.438-1.524-2.02a1.027 1.027 0 00-.436-.475c-.37-.507-.545-.835-.574-1.06-.029-.23.055-.416.325-.754.304-.378.777-.476 1.306-.656.43-.145.737-.434.817-.801.053-.245-.002-.502-.133-.75l.014-.001-.046-.065c-.033-.057-.076-.112-.119-.167l-.082-.115c-.159-.223-.356-.37-.465-.508-.102-.128-.144-.21-.092-.394.149-.186.213-.403.238-.607.032-.234.067-.409.105-.516.038-.107.067-.13.08-.138.014-.007.058-.02.178.006.113.024.285.086.497.173.179.17.357.335.534.503.183.31.242.823.7 1.192.069.056.148.128.273.18a.59.59 0 00.462-.017.662.662 0 00.313-.3.508.508 0 00-.017-.468l-.001-.001c-.236-.404-.21-.938-.43-1.507-.684-1.755-1.658-3.325-2.869-4.776-2.637-3.155-5.763-5.725-9.548-7.48h-.001c-.733-.342-1.526-.775-2.433-.828zm11.891 30.38a1.31 1.31 0 00-.64.257c-.161.12-.29.257-.413.391l-.041-.031-.147.234-.112.121.031.042a1.108 1.108 0 00-.074.75c.078.28.26.513.482.687.25.198.576.2.805.09.225-.108.39-.284.531-.449.3-.202.391-.503.504-.658v-.001c.225-.313.319-.65.185-.941-.134-.29-.456-.448-.85-.49a1.23 1.23 0 00-.261-.001z" fill="#ED5235"/><path d="M42.77 3.008a.662.662 0 00-.23.005h-.004c-.723.155-1.48.282-2.21.546-1.53.555-2.57 1.756-3.878 2.404-.31.154-.495.424-.48.696.016.26.165.476.353.666a.695.695 0 00.2.288 1 1 0 00.33.182l-.004-.001a.824.824 0 01.278.15c.045.042.056.068.063.11.013.086-.041.274-.161.523-.536 1.115-1.614 1.5-2.728 2.034-.152.074-.228.076-.29.06a.53.53 0 01-.204-.146c-.097-.278-.244-.566-.536-.767-.068-.078-.15-.196-.295-.307a.868.868 0 00-.718-.135l-.32.072.158.282c.17.304.374.563.672.739.252.554.087 1.183.1 1.892a.398.398 0 00-.116.187.467.467 0 00.005.2c-.17.495-.357.792-.586.953-.238.168-.56.23-1.08.188h-.002l-.003-.001a.755.755 0 00-.59.219c-.722.76-.641 2.08.168 2.772.149.127.393.23.638.157l.002-.001c1.187-.368 2.282-1.02 3.012-1.967.6-.778 1.098-1.013 2.001-.909.424.053.836.025 1.231.006 1.043-.046 1.936.348 2.78.94.44.31.79.505 1.18.493.186-.005.361-.06.541-.15l-.045.135.615-.525c.021-.018.041-.03.063-.049l.023-.019.012-.015c.32-.272.641-.548.964-.82.414-.141.685-.418.946-.59l.001-.002c.37-.241.723-.441 1.071-.522.348-.082.691-.06 1.116.168v.001h.001c.998.534 2.04.974 3.041 1.453h.001c.144.068.307.19.554.201a.52.52 0 00.323-.105l.04.074.097-.244a.949.949 0 00.093-.232l.008-.02c.236-.59.112-1.153.176-1.616a1.37 1.37 0 00.265-.574c.286-.369.612-.74.85-1.204.293-.18.511-.32.806-.306h-.001c.356.019.672-.061.84-.308.167-.247.097-.575-.107-.856v-.001c-.308-.429-.416-.954-.536-1.463v-.001c-.18-.764-.448-1.478-.138-2.193.16-.372.127-.809.025-1.164-.075-.265-.16-.538-.383-.744-.225-.205-.566-.29-1.01-.233h-.002c-1.387.184-2.704.559-4.035.726-1.653.207-3.183.198-4.423-1.035l-.002-.001c-.129-.127-.307-.264-.526-.296zm-2.527 2.764c.221-.032.47.075.706.326.408.434.642.984.825 1.52.214.62-.83 1.765-1.62 1.731-.124-.01-.353-.073-.611-.034-.79.112-.975-.088-.721-.814.258-.75.561-1.492.874-2.223.13-.304.325-.474.547-.506z" fill="#CD4637"/><path d="M13.14 21a.736.736 0 00-.4.124 4.24 4.24 0 00-.536.431l-.007.006-.207.134a.608.608 0 00-.177.034.494.494 0 00-.183.135 1.851 1.851 0 00-.778.442h-.002l-.001.002a.478.478 0 00-.127.223.379.379 0 00.01.29c.114.273.516.31.668.048l-.003.006c.083-.135.18-.174.348-.217.156-.038.361-.06.572-.16l.157-.017c.31.133.63.282.974.395l.003.001.002.001a.84.84 0 00.391.034.638.638 0 00.41-.266.563.563 0 00.075-.461.78.78 0 00-.176-.299l-.001-.002c-.197-.219-.338-.397-.463-.54-.126-.142-.236-.263-.414-.321A.478.478 0 0013.14 21zm3.471 2.464c-.073.002-.136.01-.186.01-.687-.006-1.37.018-2.043 0-.28-.008-.533-.02-.733.175a.567.567 0 00-.156.378c-.007.138.018.284.064.458.156.606.417 1.117.38 1.673-.052.77-.125 1.21-.26 1.448-.136.237-.334.345-.804.476-.102.028-.519-.008-.877-.12a2.855 2.855 0 01-.48-.196.894.894 0 01-.215-.157c-.218-.37-.344-.73-.354-1.071-.01-.342.088-.671.356-1.018.242-.311.289-.667.25-.995l.001.008c-.001-.02.022-.12.021-.264a.498.498 0 00-.064-.25.5.5 0 00-.238-.2l-.001-.002h-.001a.53.53 0 00-.47.058c-.106.072-.169.144-.208.174v.001l-.001.001a8.704 8.704 0 01-2.413 1.332l-.002-.029-.287.137-.013.005-.061.019-.037.04a.55.55 0 00-.252.348c-.027.162.015.285.047.41.151.596-.004 1.121-.425 1.594-.282.32-.589.624-.905.91-1.017.917-1.657 2.092-2.067 3.328-.213.636-.314 1.47.17 2.184.047.423.176.876.596 1.22l.257.21.124-.307.26-.638c.435-.45 1.016-.455 1.524-.018.704.605 1.17 1.447 1.796 2.22l.007.013c.372.62.747 1.232 1.107 1.851.332.578.91.773 1.506.73h.003c.165-.015.317-.018.401.008 1.203.39 2.416.661 3.51 1.204.377.187.75.221 1.082.127.307-.086.57-.273.812-.502.852-.078 1.54-.503 2.24-.495h.003c.094 0 .142-.03.183-.056a.554.554 0 00.191-.19c.025-.042.057-.093.05-.194a.698.698 0 00-.108-.351.604.604 0 00-.354-.244c-.288-.07-.595-.126-.906-.097-.31.028-.629.15-.883.412l-.001.001c-.294.306-.56.421-.949.416-.274-.066-.514-.286-.84-.49l-.003-.002c-.163-.183-.36-.27-.49-.356-.13-.088-.177-.133-.187-.243-.082-.93-.098-1.73.602-2.41.225-.217.422-.333.592-.359.15-.023.306.015.508.157l.083.062c-.016-.011.012.04.065.167a.546.546 0 00.151.215.51.51 0 00.322.11c.11 0 .215-.03.304-.114a.383.383 0 00.09-.39l-.002-.001c-.022-.055-.04-.179-.123-.319a.502.502 0 00-.204-.195c-.023-.011-.05-.014-.074-.022.015-.198-.05-.365-.091-.49v-.001c-.618-1.85-1.09-3.666-.702-5.596.096-.477.265-.828.59-1.104.22-.189.361-.409.355-.651-.006-.234-.137-.425-.306-.594-.317-.4-.408-.792-.26-1.267.3-.268.466-.581.477-.905.013-.346-.127-.674-.333-.99l-.072-.111a.64.64 0 00-.393-.27 1.095 1.095 0 00-.246-.016z" fill="#50AF3E"/><path d="M72.744 52.01c-.146.04-.21.203-.236.402-.107.812.401 1.425 1.154 1.665.783.25 1.492-.107 2.285-.086-.607-1.405-1.83-1.677-3.028-1.978a.346.346 0 00-.175-.003zm-1.143 4.878l-.174.246-.005.008c-.428-.273-.812-.025-1.145.21-1.164.813-2.338 1.62-3.272 2.733.003 0 .006-.002.009-.004-.812.782-1.614 1.573-2.499 2.268-.342.265-.591.68-.494 1.124.152.67.049 1.364.23 2.023.083.301-.088.684.26.899l.015-.002-.02.007c.254.26.499.087.738-.02a94.098 94.098 0 002.202-.991c1.487-.7 2.89-.664 4.236.388.406.317.738.736 1.223.94.425.399.88.322 1.354.102.694-.324 1.236-.834 1.721-1.422l.12.246.237-.287c.288-.347.56-.701.85-1.024.522-.583.806-1.23.813-1.893.007-.661-.263-1.318-.774-1.92l-.155-.182-.157.13c-.31-.577-.634-1.146-1.05-1.649a1.986 1.986 0 00-.347-.665l.137-.028-.124-.294c-.115-.27-.275-.51-.534-.614a.508.508 0 00-.435.027c-.136.079-.232.213-.304.382h-.001c-.161.38-.3.465-.472.497-.174.03-.43-.032-.735-.114-.498-.135-.87-.479-1.248-.898l-.2-.223z" fill="#CB4989"/><path d="M8.768 44c-.492.005-.915.19-1.274.434-.478.324-.875.741-1.288 1.022-.161.105-.172.236-.19.342a1.259 1.259 0 00-.013.295v.003c.219 2.544.316 5.148 1.276 7.625.787 2.03 1.764 4.029 4.047 4.95.107.043.246.17.415.307 1.009.814 1.098 2.004 1.294 3.266.184 1.215.123 2.542.728 3.8.765 1.59 1.878 2.915 2.767 4.348.18.287.433.482.719.562.286.081.593.051.889-.061a.823.823 0 00.414-.319.774.774 0 00.11-.427c-.004-.272-.099-.51-.124-.64-.236-1.193-.268-2.391-.207-3.608.197-.394.245-.8.308-1.163 1.134-2.065 1.529-4.29 1.301-6.615v-.002c-.047-.462.088-.69.455-.969.35-.264.869-.487 1.161-1.016l.024-.014.03-.068c.013-.026.02-.052.03-.079l.12-.25-.023-.001c.337-1 .149-2.004.06-2.938v-.001c-.07-.77-.135-1.48.103-2.172v-.001c.408-1.201-.48-2.542-1.744-2.646-.615-.052-1.212-.037-1.788-.08-.572-.044-1.1-.133-1.541-.341-.442-.209-.804-.529-1.077-1.084l-.001-.001c-.273-.547-.562-1.265-1.348-1.564-.67-.26-1.35-.406-2.02-.56-1.094-.256-2.143-.042-3.099-.274a2.107 2.107 0 00-.514-.06z" fill="#488B49"/><path d="M25.835 9.005a.738.738 0 00-.199.052l-.024-.025-.087.072-.083-.038-.015.12-1.299 1.082c-1.127.62-2.264 1.217-3.385 1.868h-.001c-1.17.684-2.418 1.319-3.433 2.367-.146.112-.255.225-.296.383a.495.495 0 00.13.446c.09.09.186.139.267.178l.155.073c.75.449 1.067 1.058 1.24 1.964.046.243.028.545.052.872.018.25.07.522.217.773l-.005.004.153.207c.238.323.488.545.791.59.304.046.595-.155.765-.464.827-1.522 1.857-2.913 2.849-4.352l.013-.02c.57-.714 1.176-1.412 1.724-2.175.412-.574 1.055-1.025 1.477-1.761a1.22 1.22 0 00.093-1.001c-.093-.284-.235-.516-.302-.71l-.001-.002a.777.777 0 00-.421-.446.704.704 0 00-.375-.057z" fill="#50AF3E"/></g></svg>